HIERARCHY
ROOT root
{
	OFFSET	0	13.1	24.9
	CHANNELS 6  Xposition Yposition Zposition Xrotation Yrotation Zrotation
	JOINT spine_1
	{
		OFFSET	0	9.99999	0
		CHANNELS 3  Xrotation Yrotation Zrotation
		JOINT spine_2
		{
			OFFSET	0	112	-10
			CHANNELS 3  Xrotation Yrotation Zrotation
			JOINT spine_3
			{
				OFFSET	0	206.5	19.3
				CHANNELS 3  Xrotation Yrotation Zrotation
				JOINT spine_4
				{
					OFFSET	0	110.4	14.6
					CHANNELS 3  Xrotation Yrotation Zrotation
					JOINT neck_1
					{
						OFFSET	0	71.8	-50.3
						CHANNELS 3  Xrotation Yrotation Zrotation
						JOINT neck_2
						{
							OFFSET	0	86.2	-25.8
							CHANNELS 3  Xrotation Yrotation Zrotation
							JOINT head_ee
							{
								OFFSET	0	179.8	-8.7
								CHANNELS 3  Xrotation Yrotation Zrotation
								End Site
								{
									OFFSET	1	0	0
								}
							}
						}
					}
					JOINT left_clavicle
					{
						OFFSET	-43.2	22.4	-70.8
						CHANNELS 3  Xrotation Yrotation Zrotation
						JOINT left_shoulder
						{
							OFFSET	-93.9	-5.79999	48.7
							CHANNELS 3  Xrotation Yrotation Zrotation
							JOINT left_elbow
							{
								OFFSET	-291.4	-30.8	15.2
								CHANNELS 3  Xrotation Yrotation Zrotation
								JOINT left_lowarm_twist
								{
									OFFSET	-110.7	-3.89999	13.6
									CHANNELS 3  Xrotation Yrotation Zrotation
									JOINT left_hand
									{
										OFFSET	-110.7	-3.89999	13.6
										CHANNELS 3  Xrotation Yrotation Zrotation
										JOINT left_ee
										{
											OFFSET	-80.8	-5.10001	12.1
											CHANNELS 3  Xrotation Yrotation Zrotation
											End Site
											{
												OFFSET	1	0	0
											}
										}
									}
								}
							}
						}
					}
					JOINT right_clavicle
					{
						OFFSET	43.2	22.4	-70.8
						CHANNELS 3  Xrotation Yrotation Zrotation
						JOINT right_shoulder
						{
							OFFSET	93.9	-5.79999	48.7
							CHANNELS 3  Xrotation Yrotation Zrotation
							JOINT right_elbow
							{
								OFFSET	291.4	-30.8	15.2
								CHANNELS 3  Xrotation Yrotation Zrotation
								JOINT right_lowarm_twist
								{
									OFFSET	110.7	-3.89999	13.6
									CHANNELS 3  Xrotation Yrotation Zrotation
									JOINT right_hand
									{
										OFFSET	110.7	-3.89999	13.6
										CHANNELS 3  Xrotation Yrotation Zrotation
										JOINT right_ee
										{
											OFFSET	80.8	-5.10001	12.1
											CHANNELS 3  Xrotation Yrotation Zrotation
											End Site
											{
												OFFSET	1	0	0
											}
										}
									}
								}
							}
						}
					}
				}
			}
		}
	}
	JOINT left_hip
	{
		OFFSET	-82.8	-127.5	0.300001
		CHANNELS 3  Xrotation Yrotation Zrotation
		JOINT left_knee
		{
			OFFSET	-28.2	-396.7	2.2
			CHANNELS 3  Xrotation Yrotation Zrotation
			JOINT left_ankle
			{
				OFFSET	-11.7	-411.3	35.4
				CHANNELS 3  Xrotation Yrotation Zrotation
				JOINT left_toes
				{
					OFFSET	0	-60	-88.6
					CHANNELS 3  Xrotation Yrotation Zrotation
					JOINT left_foot_ee
					{
						OFFSET	-22.5	-16.5	-42.2
						CHANNELS 3  Xrotation Yrotation Zrotation
						End Site
						{
							OFFSET	1	0	0
						}
					}
				}
			}
		}
	}
	JOINT right_hip
	{
		OFFSET	82.8	-127.5	0.300001
		CHANNELS 3  Xrotation Yrotation Zrotation
		JOINT right_knee
		{
			OFFSET	28.2	-396.7	2.2
			CHANNELS 3  Xrotation Yrotation Zrotation
			JOINT right_ankle
			{
				OFFSET	11.7	-411.3	35.4
				CHANNELS 3  Xrotation Yrotation Zrotation
				JOINT right_toes
				{
					OFFSET	0	-60	-88.6
					CHANNELS 3  Xrotation Yrotation Zrotation
					JOINT right_foot_ee
					{
						OFFSET	22.5	-16.5	-42.2
						CHANNELS 3  Xrotation Yrotation Zrotation
						End Site
						{
							OFFSET	1	0	0
						}
					}
				}
			}
		}
	}
}
MOTION
Frames: 5
Frame Time: 0.02
1372.05 701.618 -1475.22 -13.328127947 15.4278607564 5.35858913776 5.93845 0.190703 -0.0819118 5.93843 0.195528 -0.0696109 5.93821 0.201898 -0.0481059 5.93826 0.191767 -0.0793883 -3.81924 11.0219 -3.27798 -3.57544 22.6434 -1.68879 -0.0 0.0 -0.0 2.87148 8.88853 6.07893 -7.0041 -7.2403 61.9479 4.98957 -67.948 3.36337 -37.2203 -2.66051 3.85396 -2.12446 28.6667 -0.284648 -0.0 0.0 -0.0 2.73171 -2.28292 -5.42253 -15.4893 1.24839 -77.8609 0.251671 7.1066 -0.0156279 -55.8428 4.77075 -4.95307 3.43952 -10.6498 -27.5254 0.0 0.0 0.0 -0.814302 -11.4962 7.59843 -0.796851 0.0319899 0.118101 42.2749 24.4883 -5.36362 14.3037 -0.0 -0.0 -0.0 0.0 -0.0 43.9079 33.081 -15.0752 3.65337 0.167595 0.53541 -2.55889 -13.0237 -0.3778 -8.78293 0.0 0.0 0.0 0.0 0.0 
1359.51586117 700.018 -1492.77450551 -12.6342172573 15.1690494448 4.82474288135 5.48113 0.148072 -0.0624661 5.48112 0.151747 -0.0529173 5.48099 0.156855 -0.0349836 5.48102 0.149361 -0.0593169 -6.26019 10.943 -1.88571 -6.19813 21.6406 0.205985 -0.0 0.0 -0.0 2.6704 11.2925 5.86015 -8.90528 -8.05867 62.1577 5.16805 -68.6381 3.5292 -35.3026 -2.46601 3.70329 -1.88493 28.7253 1.03078 -0.0 0.0 -0.0 3.41429 -1.64484 -6.67776 -13.934 1.64962 -77.2294 0.227678 6.43506 -0.012799 -57.0398 4.91708 -4.99953 2.64114 -10.4344 -21.7735 0.0 0.0 0.0 -0.723971 -10.797 8.2192 -3.95724 0.142584 0.590457 42.4488 23.2479 -5.33933 17.7501 -0.0 -0.0 -0.0 0.0 -0.0 43.6097 33.3333 -15.5142 0.965066 0.0409413 0.142433 -6.1965 -14.2906 -0.922941 -8.30095 0.0 0.0 0.0 0.0 0.0 
1359.82572825 700.018 -1492.99167635 -12.5767565705 14.188150432 4.59798964207 5.48113 0.148072 -0.0624661 5.48112 0.151747 -0.0529173 5.48099 0.156855 -0.0349836 5.48102 0.149361 -0.0593169 -6.26019 10.943 -1.88571 -6.19813 21.6406 0.205985 -0.0 0.0 -0.0 2.6704 11.2925 5.86015 -8.90528 -8.05867 62.1577 5.16805 -68.6381 3.5292 -35.3026 -2.46601 3.70329 -1.88493 28.7253 1.03078 -0.0 0.0 -0.0 3.41429 -1.64484 -6.67776 -13.934 1.64962 -77.2294 0.227678 6.43506 -0.012799 -57.0398 4.91708 -4.99953 2.64114 -10.4344 -21.7735 0.0 0.0 0.0 -0.723971 -10.797 8.2192 -3.95724 0.142584 0.590457 42.4488 23.2479 -5.33933 17.7501 -0.0 -0.0 -0.0 0.0 -0.0 43.6097 33.3333 -15.5142 0.965066 0.0409413 0.142433 -6.1965 -14.2906 -0.922941 -8.30095 0.0 0.0 0.0 0.0 0.0 
1340.95713359 697.143 -1520.93349974 -11.4744487054 15.004829624 3.52449325345 5.43285 -0.190551 0.077314 5.43284 -0.195085 0.065032 5.43263 -0.20134 0.0418267 5.43268 -0.192207 0.0730998 -6.8132 11.3687 -2.75543 -6.76138 23.0964 -0.474374 -0.0 0.0 -0.0 3.06443 12.944 6.60107 -11.0432 -6.69278 62.2317 4.52987 -65.9587 2.9403 -35.4064 -2.47641 3.71161 -1.46681 28.7296 3.28074 -0.0 0.0 -0.0 3.9427 -1.68276 -7.68743 -12.4294 2.70819 -76.747 0.197277 5.58167 -0.00961685 -58.6817 5.11927 -5.05825 1.87967 -10.8702 -16.7335 0.0 0.0 0.0 -1.91028 -12.2941 9.28575 -6.3041 0.207752 0.944701 42.0088 21.374 -5.24557 19.4967 -0.0 -0.0 -0.0 0.0 -0.0 43.3942 33.5028 -15.5504 -6.14924 -0.203899 -0.921249 -1.79857 -13.9512 -0.265498 -5.46649 0.0 0.0 0.0 0.0 0.0 
1327.3747348 697.463 -1540.81779554 -10.3038757744 16.3490477981 2.64085208559 5.28461 -0.327316 0.181021 5.28457 -0.338171 0.159826 5.28367 -0.354819 0.118355 5.28381 -0.331674 0.172907 -7.6017 11.2403 -2.77657 -7.59834 22.9186 -0.357025 -0.0 0.0 -0.0 3.37771 13.89 7.15326 -13.2649 -7.31553 62.4349 4.1341 -63.9546 2.58168 -34.8581 -2.42166 3.66745 -1.05571 28.7388 5.50106 -0.0 0.0 -0.0 4.71171 -0.983608 -9.13476 -10.2004 3.00191 -76.0001 0.191991 5.43301 -0.0091095 -59.7346 5.24976 -5.09284 1.32271 -11.2292 -13.1731 0.0 0.0 0.0 -2.63635 -12.5281 10.1399 -8.15148 0.248807 1.22521 41.6975 19.7704 -5.17688 21.1609 -0.0 -0.0 -0.0 0.0 -0.0 43.4157 33.4247 -15.9241 -11.7129 -0.302336 -1.76898 -0.934738 -17.4487 -0.138797 -3.48317 0.0 0.0 0.0 0.0 0.0 
